<svg width="56" height="56" viewBox="0 0 56 56" fill="none" xmlns="http://www.w3.org/2000/svg">
<g clip-path="url(#clip0_3518_14479)">
<g clip-path="url(#clip1_3518_14479)">
<circle cx="28" cy="32" r="9" fill="#D9480F"/>
<path d="M51.8438 32.2526C51.6442 32.3709 51.4058 32.4051 51.181 32.3477C50.9562 32.2903 50.7634 32.1459 50.645 31.9464C48.8228 28.8839 46.0666 27.1339 43.085 27.1339C42.9958 27.1327 42.9073 27.118 42.8225 27.0901C42.5464 27.119 42.2689 27.1336 41.9913 27.1339C41.7592 27.1339 41.5366 27.0417 41.3725 26.8776C41.2084 26.7135 41.1163 26.4909 41.1163 26.2589C41.1163 26.0268 41.2084 25.8042 41.3725 25.6401C41.5366 25.476 41.7592 25.3839 41.9913 25.3839C43.1368 25.3835 44.2592 25.0619 45.2311 24.4556C46.203 23.8493 46.9854 22.9826 47.4894 21.954C47.9935 20.9254 48.199 19.776 48.0826 18.6364C47.9661 17.4969 47.5325 16.4128 46.8309 15.5073C46.1293 14.6018 45.1878 13.9112 44.1134 13.514C43.039 13.1167 41.8747 13.0287 40.7528 13.26C39.6309 13.4912 38.5963 14.0324 37.7665 14.8222C36.9368 15.6119 36.3451 16.6185 36.0588 17.7276C36.0007 17.9524 35.8558 18.145 35.6558 18.2629C35.4558 18.3809 35.2172 18.4145 34.9924 18.3565C34.7675 18.2985 34.575 18.1535 34.457 17.9536C34.3391 17.7536 34.3054 17.5149 34.3634 17.2901C34.6846 16.045 35.3057 14.8974 36.1726 13.9477C37.0394 12.998 38.1257 12.275 39.3364 11.8418C40.5471 11.4087 41.8455 11.2787 43.1181 11.463C44.3906 11.6474 45.5987 12.1406 46.6367 12.8995C47.6748 13.6584 48.5112 14.66 49.0729 15.8167C49.6346 16.9734 49.9045 18.25 49.859 19.5351C49.8136 20.8201 49.4541 22.0745 48.8121 23.1886C48.1701 24.3027 47.265 25.2427 46.1759 25.9264C48.5406 26.7685 50.6625 28.5514 52.15 31.0626C52.2656 31.2614 52.2982 31.4977 52.2409 31.7204C52.1836 31.9431 52.0409 32.1343 51.8438 32.2526ZM41.0069 46.8126C41.1227 47.0134 41.1541 47.2519 41.0942 47.4759C41.0344 47.6998 40.8881 47.8908 40.6875 48.007C40.5549 48.0848 40.4038 48.1256 40.25 48.1251C40.0966 48.1249 39.9459 48.0844 39.813 48.0076C39.6802 47.9309 39.5699 47.8205 39.4931 47.6876C38.3138 45.6884 36.6334 44.0313 34.6178 42.8802C32.6022 41.729 30.3212 41.1235 28 41.1235C25.6788 41.1235 23.3978 41.729 21.3822 42.8802C19.3667 44.0313 17.6862 45.6884 16.5069 47.6876C16.3858 47.8781 16.1958 48.0144 15.9766 48.0681C15.7574 48.1218 15.526 48.0887 15.3306 47.9757C15.1352 47.8628 14.991 47.6787 14.9281 47.462C14.8652 47.2452 14.8885 47.0126 14.9931 46.8126C16.8924 43.5512 19.9549 41.1288 23.5659 40.0314C21.6526 39.0382 20.128 37.4315 19.2365 35.4687C18.3451 33.506 18.1383 31.3007 18.6495 29.2064C19.1606 27.1122 20.36 25.2501 22.0555 23.9187C23.7509 22.5872 25.8443 21.8635 28 21.8635C30.1558 21.8635 32.2491 22.5872 33.9446 23.9187C35.64 25.2501 36.8394 27.1122 37.3505 29.2064C37.8617 31.3007 37.6549 33.506 36.7635 35.4687C35.872 37.4315 34.3474 39.0382 32.4341 40.0314C36.0451 41.1288 39.1076 43.5512 41.0069 46.8126ZM28 39.3751C29.5575 39.3751 31.0801 38.9132 32.3751 38.0479C33.6702 37.1826 34.6795 35.9527 35.2756 34.5137C35.8716 33.0748 36.0276 31.4914 35.7237 29.9638C35.4198 28.4362 34.6698 27.033 33.5685 25.9316C32.4671 24.8303 31.0639 24.0803 29.5363 23.7764C28.0087 23.4726 26.4253 23.6285 24.9864 24.2246C23.5474 24.8206 22.3175 25.83 21.4522 27.125C20.5869 28.42 20.125 29.9426 20.125 31.5001C20.125 33.5887 20.9547 35.5917 22.4315 37.0686C23.9084 38.5454 25.9114 39.3751 28 39.3751ZM14 25.3751C12.8545 25.3747 11.7321 25.0531 10.7602 24.4469C9.78828 23.8406 9.00588 22.9739 8.50183 21.9452C7.99779 20.9166 7.7923 19.7672 7.90871 18.6277C8.02512 17.4881 8.45875 16.404 9.16037 15.4985C9.86199 14.5931 10.8035 13.9025 11.8779 13.5052C12.9523 13.108 14.1166 13.02 15.2385 13.2512C16.3604 13.4825 17.395 14.0237 18.2247 14.8134C19.0545 15.6031 19.6461 16.6097 19.9325 17.7189C19.9905 17.9437 20.1355 18.1362 20.3355 18.2542C20.5354 18.3721 20.7741 18.4058 20.9989 18.3478C21.2237 18.2897 21.4163 18.1448 21.5342 17.9448C21.6522 17.7448 21.6858 17.5062 21.6278 17.2814C21.3054 16.0318 20.6808 14.8806 19.809 13.9291C18.9373 12.9776 17.845 12.255 16.6284 11.8247C15.4118 11.3944 14.108 11.2697 12.8319 11.4615C11.5557 11.6534 10.3463 12.1559 9.30997 12.9249C8.27363 13.6939 7.44214 14.7057 6.88867 15.8715C6.3352 17.0373 6.07669 18.3212 6.13589 19.6103C6.1951 20.8994 6.5702 22.1542 7.22819 23.2644C7.88619 24.3745 8.80692 25.3059 9.90938 25.9767C7.0663 26.8402 4.57471 28.592 2.8 30.9751C2.66076 31.1608 2.60098 31.3941 2.6338 31.6238C2.66662 31.8536 2.78935 32.0609 2.975 32.2001C3.16066 32.3393 3.39402 32.3991 3.62375 32.3663C3.85348 32.3335 4.06077 32.2108 4.2 32.0251C5.33569 30.498 6.81419 29.259 8.51639 28.4079C10.2186 27.5568 12.0969 27.1174 14 27.1251C14.2321 27.1251 14.4546 27.0329 14.6187 26.8688C14.7828 26.7047 14.875 26.4822 14.875 26.2501C14.875 26.018 14.7828 25.7955 14.6187 25.6314C14.4546 25.4673 14.2321 25.3751 14 25.3751Z" fill="black"/>
</g>
</g>
<defs>
<clipPath id="clip0_3518_14479">
<rect width="56" height="56" fill="white"/>
</clipPath>
<clipPath id="clip1_3518_14479">
<rect width="56" height="56" fill="white"/>
</clipPath>
</defs>
</svg>
