<svg width="56" height="56" viewBox="0 0 56 56" fill="none" xmlns="http://www.w3.org/2000/svg">
<g clip-path="url(#clip0_3518_14431)">
<path d="M48.5 11H36.5C35.6716 11 35 11.4797 35 12.0714V24.9286C35 25.5203 35.6716 26 36.5 26H48.5C49.3284 26 50 25.5203 50 24.9286V12.0714C50 11.4797 49.3284 11 48.5 11Z" fill="#D9480F"/>
<path d="M48.5 36H36.5C35.6716 36 35 36.4797 35 37.0714V49.9286C35 50.5203 35.6716 51 36.5 51H48.5C49.3284 51 50 50.5203 50 49.9286V37.0714C50 36.4797 49.3284 36 48.5 36Z" fill="#D9480F"/>
<path d="M35 23.625H45.5C46.1962 23.625 46.8639 23.3484 47.3562 22.8562C47.8484 22.3639 48.125 21.6962 48.125 21V10.5C48.125 9.80381 47.8484 9.13613 47.3562 8.64384C46.8639 8.15156 46.1962 7.875 45.5 7.875H35C34.3038 7.875 33.6361 8.15156 33.1438 8.64384C32.6516 9.13613 32.375 9.80381 32.375 10.5V14.875H28C26.8397 14.875 25.7269 15.3359 24.9064 16.1564C24.0859 16.9769 23.625 18.0897 23.625 19.25V27.125H14.875V24.5C14.875 23.8038 14.5984 23.1361 14.1062 22.6438C13.6139 22.1516 12.9462 21.875 12.25 21.875H5.25C4.55381 21.875 3.88613 22.1516 3.39384 22.6438C2.90156 23.1361 2.625 23.8038 2.625 24.5V31.5C2.625 32.1962 2.90156 32.8639 3.39384 33.3562C3.88613 33.8484 4.55381 34.125 5.25 34.125H12.25C12.9462 34.125 13.6139 33.8484 14.1062 33.3562C14.5984 32.8639 14.875 32.1962 14.875 31.5V28.875H23.625V36.75C23.625 37.9103 24.0859 39.0231 24.9064 39.8436C25.7269 40.6641 26.8397 41.125 28 41.125H32.375V45.5C32.375 46.1962 32.6516 46.8639 33.1438 47.3562C33.6361 47.8484 34.3038 48.125 35 48.125H45.5C46.1962 48.125 46.8639 47.8484 47.3562 47.3562C47.8484 46.8639 48.125 46.1962 48.125 45.5V35C48.125 34.3038 47.8484 33.6361 47.3562 33.1438C46.8639 32.6516 46.1962 32.375 45.5 32.375H35C34.3038 32.375 33.6361 32.6516 33.1438 33.1438C32.6516 33.6361 32.375 34.3038 32.375 35V39.375H28C27.3038 39.375 26.6361 39.0984 26.1438 38.6062C25.6516 38.1139 25.375 37.4462 25.375 36.75V19.25C25.375 18.5538 25.6516 17.8861 26.1438 17.3938C26.6361 16.9016 27.3038 16.625 28 16.625H32.375V21C32.375 21.6962 32.6516 22.3639 33.1438 22.8562C33.6361 23.3484 34.3038 23.625 35 23.625ZM13.125 31.5C13.125 31.7321 13.0328 31.9546 12.8687 32.1187C12.7046 32.2828 12.4821 32.375 12.25 32.375H5.25C5.01794 32.375 4.79538 32.2828 4.63128 32.1187C4.46719 31.9546 4.375 31.7321 4.375 31.5V24.5C4.375 24.2679 4.46719 24.0454 4.63128 23.8813C4.79538 23.7172 5.01794 23.625 5.25 23.625H12.25C12.4821 23.625 12.7046 23.7172 12.8687 23.8813C13.0328 24.0454 13.125 24.2679 13.125 24.5V31.5ZM34.125 35C34.125 34.7679 34.2172 34.5454 34.3813 34.3813C34.5454 34.2172 34.7679 34.125 35 34.125H45.5C45.7321 34.125 45.9546 34.2172 46.1187 34.3813C46.2828 34.5454 46.375 34.7679 46.375 35V45.5C46.375 45.7321 46.2828 45.9546 46.1187 46.1187C45.9546 46.2828 45.7321 46.375 45.5 46.375H35C34.7679 46.375 34.5454 46.2828 34.3813 46.1187C34.2172 45.9546 34.125 45.7321 34.125 45.5V35ZM34.125 10.5C34.125 10.2679 34.2172 10.0454 34.3813 9.88128C34.5454 9.71719 34.7679 9.625 35 9.625H45.5C45.7321 9.625 45.9546 9.71719 46.1187 9.88128C46.2828 10.0454 46.375 10.2679 46.375 10.5V21C46.375 21.2321 46.2828 21.4546 46.1187 21.6187C45.9546 21.7828 45.7321 21.875 45.5 21.875H35C34.7679 21.875 34.5454 21.7828 34.3813 21.6187C34.2172 21.4546 34.125 21.2321 34.125 21V10.5Z" fill="#141414"/>
</g>
<defs>
<clipPath id="clip0_3518_14431">
<rect width="56" height="56" fill="white"/>
</clipPath>
</defs>
</svg>
