<svg width="56" height="56" viewBox="0 0 56 56" fill="none" xmlns="http://www.w3.org/2000/svg">
<g clip-path="url(#clip0_3518_14485)">
<g clip-path="url(#clip1_3518_14485)">
<g clip-path="url(#clip2_3518_14485)">
<circle cx="18.5" cy="43.5" r="6.5" fill="#D9480F"/>
<path d="M16.6255 34.125C15.241 34.125 13.8876 34.5355 12.7365 35.3047C11.5854 36.0739 10.6881 37.1671 10.1583 38.4462C9.62852 39.7253 9.48989 41.1328 9.75999 42.4906C10.0301 43.8485 10.6968 45.0958 11.6757 46.0747C12.6547 47.0537 13.902 47.7204 15.2599 47.9905C16.6177 48.2606 18.0252 48.122 19.3043 47.5922C20.5834 47.0623 21.6766 46.1651 22.4458 45.014C23.2149 43.8628 23.6255 42.5095 23.6255 41.125C23.6255 39.2685 22.888 37.488 21.5752 36.1753C20.2625 34.8625 18.482 34.125 16.6255 34.125ZM16.6255 46.375C15.5871 46.375 14.5721 46.0671 13.7087 45.4902C12.8454 44.9133 12.1725 44.0934 11.7751 43.1341C11.3778 42.1748 11.2738 41.1192 11.4764 40.1008C11.6789 39.0824 12.179 38.1469 12.9132 37.4127C13.6474 36.6785 14.5829 36.1784 15.6013 35.9759C16.6197 35.7733 17.6753 35.8773 18.6346 36.2746C19.5939 36.672 20.4138 37.3449 20.9907 38.2083C21.5676 39.0716 21.8755 40.0866 21.8755 41.125C21.8755 42.5174 21.3224 43.8527 20.3378 44.8373C19.3532 45.8219 18.0179 46.375 16.6255 46.375ZM9.88142 23.8809L13.6374 20.125L9.88142 16.3691C9.71724 16.2049 9.625 15.9822 9.625 15.75C9.625 15.5178 9.71724 15.2951 9.88142 15.1309C10.0456 14.9668 10.2683 14.8745 10.5005 14.8745C10.7327 14.8745 10.9554 14.9668 11.1195 15.1309L14.8755 18.8869L18.6314 15.1309C18.7956 14.9668 19.0183 14.8745 19.2505 14.8745C19.4827 14.8745 19.7054 14.9668 19.8695 15.1309C20.0337 15.2951 20.126 15.5178 20.126 15.75C20.126 15.9822 20.0337 16.2049 19.8695 16.3691L16.1136 20.125L19.8695 23.8809C19.9508 23.9622 20.0153 24.0587 20.0593 24.165C20.1033 24.2712 20.126 24.385 20.126 24.5C20.126 24.615 20.1033 24.7288 20.0593 24.835C20.0153 24.9413 19.9508 25.0378 19.8695 25.1191C19.7883 25.2004 19.6917 25.2648 19.5855 25.3088C19.4793 25.3528 19.3655 25.3755 19.2505 25.3755C19.1355 25.3755 19.0217 25.3528 18.9155 25.3088C18.8092 25.2648 18.7127 25.2004 18.6314 25.1191L14.8755 21.3631L11.1195 25.1191C11.0383 25.2004 10.9417 25.2648 10.8355 25.3088C10.7293 25.3528 10.6155 25.3755 10.5005 25.3755C10.3855 25.3755 10.2717 25.3528 10.1655 25.3088C10.0592 25.2648 9.96272 25.2004 9.88142 25.1191C9.80013 25.0378 9.73564 24.9413 9.69164 24.835C9.64764 24.7288 9.625 24.615 9.625 24.5C9.625 24.385 9.64764 24.2712 9.69164 24.165C9.73564 24.0587 9.80013 23.9622 9.88142 23.8809ZM49.6196 44.8809C49.7837 45.0451 49.876 45.2678 49.876 45.5C49.876 45.7322 49.7837 45.9549 49.6196 46.1191C49.4554 46.2832 49.2327 46.3755 49.0005 46.3755C48.7683 46.3755 48.5456 46.2832 48.3814 46.1191L44.6255 42.3631L40.8696 46.1191C40.7054 46.2832 40.4827 46.3755 40.2505 46.3755C40.0183 46.3755 39.7956 46.2832 39.6314 46.1191C39.4672 45.9549 39.375 45.7322 39.375 45.5C39.375 45.2678 39.4672 45.0451 39.6314 44.8809L43.3874 41.125L39.6314 37.3691C39.4672 37.2049 39.375 36.9822 39.375 36.75C39.375 36.5178 39.4672 36.2951 39.6314 36.1309C39.7956 35.9668 40.0183 35.8745 40.2505 35.8745C40.4827 35.8745 40.7054 35.9668 40.8696 36.1309L44.6255 39.8869L48.3814 36.1309C48.4627 36.0496 48.5592 35.9852 48.6655 35.9412C48.7717 35.8972 48.8855 35.8745 49.0005 35.8745C49.1155 35.8745 49.2293 35.8972 49.3355 35.9412C49.4417 35.9852 49.5383 36.0496 49.6196 36.1309C49.7008 36.2122 49.7653 36.3087 49.8093 36.415C49.8533 36.5212 49.876 36.635 49.876 36.75C49.876 36.865 49.8533 36.9788 49.8093 37.085C49.7653 37.1913 49.7008 37.2878 49.6196 37.3691L45.8636 41.125L49.6196 44.8809ZM39.5111 24.4475C38.238 29.0413 34.3114 33.0116 29.9627 34.0988C29.8911 34.1165 29.8176 34.1253 29.7439 34.125C29.5299 34.1265 29.3227 34.0495 29.1616 33.9086C29.0006 33.7676 28.8967 33.5725 28.8698 33.3602C28.8428 33.1478 28.8946 32.933 29.0154 32.7563C29.1362 32.5796 29.3176 32.4533 29.5252 32.4012C33.2308 31.4737 36.7155 27.9344 37.8114 23.9816C38.5705 21.2406 38.588 17.0888 34.3683 12.8691L32.3755 10.8631V17.5C32.3755 17.7321 32.2833 17.9546 32.1192 18.1187C31.9551 18.2828 31.7326 18.375 31.5005 18.375C31.2684 18.375 31.0459 18.2828 30.8818 18.1187C30.7177 17.9546 30.6255 17.7321 30.6255 17.5V8.75C30.6255 8.51794 30.7177 8.29538 30.8818 8.13128C31.0459 7.96719 31.2684 7.875 31.5005 7.875H40.2505C40.4826 7.875 40.7051 7.96719 40.8692 8.13128C41.0333 8.29538 41.1255 8.51794 41.1255 8.75C41.1255 8.98206 41.0333 9.20462 40.8692 9.36872C40.7051 9.53281 40.4826 9.625 40.2505 9.625H33.6136L35.6196 11.6309C39.3755 15.3891 40.7602 19.9412 39.5111 24.4475Z" fill="black"/>
</g>
</g>
</g>
<defs>
<clipPath id="clip0_3518_14485">
<rect width="56" height="56" fill="white"/>
</clipPath>
<clipPath id="clip1_3518_14485">
<rect width="56" height="56" fill="white"/>
</clipPath>
<clipPath id="clip2_3518_14485">
<rect width="56" height="56" fill="white"/>
</clipPath>
</defs>
</svg>
