<svg width="56" height="57" viewBox="0 0 56 57" fill="none" xmlns="http://www.w3.org/2000/svg">
<path d="M23.6001 6.2666H7.6001C6.49553 6.2666 5.6001 7.16203 5.6001 8.2666V32.2666C5.6001 33.3712 6.49553 34.2666 7.6001 34.2666H23.6001C24.7047 34.2666 25.6001 33.3712 25.6001 32.2666V8.2666C25.6001 7.16203 24.7047 6.2666 23.6001 6.2666Z" fill="#D9480F"/>
<path d="M49 23.6667H33C31.8954 23.6667 31 24.5622 31 25.6667V49.6667C31 50.7713 31.8954 51.6667 33 51.6667H49C50.1046 51.6667 51 50.7713 51 49.6667V25.6667C51 24.5622 50.1046 23.6667 49 23.6667Z" fill="#D9480F"/>
<path d="M52 26.6667H36C34.8954 26.6667 34 27.5622 34 28.6667V52.6667C34 53.7713 34.8954 54.6667 36 54.6667H52C53.1046 54.6667 54 53.7713 54 52.6667V28.6667C54 27.5622 53.1046 26.6667 52 26.6667Z" stroke="#141414" stroke-linecap="round" stroke-linejoin="round"/>
<path d="M52 2.66675H36C34.8954 2.66675 34 3.56218 34 4.66675V12.7067C34 13.8113 34.8954 14.7067 36 14.7067H52C53.1046 14.7067 54 13.8113 54 12.7067V4.66675C54 3.56218 53.1046 2.66675 52 2.66675Z" stroke="#141414" stroke-linecap="round" stroke-linejoin="round"/>
<path d="M20 2.66675H4C2.89543 2.66675 2 3.56218 2 4.66675V28.6667C2 29.7713 2.89543 30.6667 4 30.6667H20C21.1046 30.6667 22 29.7713 22 28.6667V4.66675C22 3.56218 21.1046 2.66675 20 2.66675Z" stroke="#141414" stroke-linecap="round" stroke-linejoin="round"/>
<path d="M20 42.6267H4C2.89543 42.6267 2 43.5221 2 44.6267V52.6667C2 53.7713 2.89543 54.6667 4 54.6667H20C21.1046 54.6667 22 53.7713 22 52.6667V44.6267C22 43.5221 21.1046 42.6267 20 42.6267Z" stroke="#141414" stroke-linecap="round" stroke-linejoin="round"/>
</svg>
